<?xml version="1.0" encoding="utf-8"?>
<!-- Generator: Adobe Illustrator 27.7.0, SVG Export Plug-In . SVG Version: 6.00 Build 0)  -->
<svg version="1.1" id="Layer_1" xmlns="http://www.w3.org/2000/svg" xmlns:xlink="http://www.w3.org/1999/xlink" x="0px" y="0px"
	 viewBox="0 0 595.28 841.89" style="enable-background:new 0 0 595.28 841.89;" xml:space="preserve">
<style type="text/css">
	.st0{fill:#00AC7A;}
	.st1{clip-path:url(#SVGID_00000121265226361628983290000008680749561668994435_);}
	.st2{fill:#414042;}
</style>
<g>
	<path class="st0" d="M316.93,448.94l-22.58-7.6v-45.19l22.58-6.07V448.94z M296.72,439.64l17.84,6v-52.47l-17.84,4.8V439.64z"/>
	<g>
		<defs>
			<rect id="SVGID_1_" x="273.48" y="405.12" width="41.08" height="46.64"/>
		</defs>
		<clipPath id="SVGID_00000044872508512874199150000013082039601948364432_">
			<use xlink:href="#SVGID_1_"  style="overflow:visible;"/>
		</clipPath>
		<g style="clip-path:url(#SVGID_00000044872508512874199150000013082039601948364432_);">
			<path class="st2" d="M285.93,423.36l0.23-0.06c0.13-0.05,0.26-0.09,0.4-0.15c0.33-0.11,0.66-0.26,0.97-0.42
				c0.07,0.08,0.14,0.15,0.21,0.23l0.12,0.13l0.39-0.13l0.01-0.21l0-0.05c0-0.05,0-0.1-0.01-0.15l-0.01-0.05
				c-0.01-0.05-0.01-0.09-0.02-0.14l0.06-0.04c0.14-0.08,0.27-0.16,0.41-0.24c0.49-0.3,0.95-0.64,1.39-1.02l0.03-0.03
				c0.15,0.06,0.3,0.13,0.45,0.19c0.06,0.02,0.11,0.03,0.16,0.04l0.06,0.01l0.54,0.09l-0.25-0.48c-0.07-0.13-0.13-0.26-0.2-0.38
				c-0.02-0.04-0.04-0.08-0.06-0.12c0.56-0.59,1-1.21,1.28-1.8c0.07,0.01,0.15,0.01,0.22,0.02l0.7,0.05l-0.26-0.45l-0.02-0.03
				c-0.02-0.03-0.04-0.08-0.09-0.12c-0.09-0.08-0.18-0.16-0.28-0.24l0.02-0.1c0.02-0.11,0.03-0.21,0.03-0.31
				c0.86,1.09,2.02,1.77,3.34,2.23c0.38,0.13,0.81,0.19,1.14,0.4c0.65,0.41,1.33,0.73,2.07,0.84c1.53,0.23,3.07,0.4,4.61,0.56
				c2.07,0.22,4.15,0.41,6.23,0.59c1.24,0.11,2.45,0.3,3.47,1.09c0.37,0.29,0.62,0.58,0.49,1.09c-0.04,0.14,0,0.33,0.07,0.47
				c0.14,0.28,0.34,0.54,0.47,0.82c0.25,0.55,0.54,1.1,0.69,1.69c0.3,1.24,0.46,2.52,0.8,3.75c0.2,0.71,0.52,1.44,0.99,2
				c1.07,1.26,2.17,2.52,3.62,3.36c0.65,0.37,0.87,0.83,0.81,1.57c-0.14,1.85-0.2,3.7-0.31,5.56c-0.02,0.31-0.17,0.66-0.54,0.7
				c-0.71,0.07-1.44,0.1-2.15,0.11c-0.09,0-0.26-0.16-0.27-0.27c-0.08-0.67,0.12-1.23,0.69-1.62c0.24-0.16,0.3-0.36,0.28-0.65
				c-0.03-0.4,0.02-0.81,0.01-1.21c-0.02-0.42-0.01-0.86-0.13-1.26c-0.27-0.88-1.09-1.3-1.68-1.92c-0.04,0-0.08,0.01-0.11,0.01
				c-0.06,0.69-0.12,1.38-0.16,2.08c-0.06,0.95-0.09,1.9-0.14,2.84c-0.01,0.18-0.06,0.37-0.15,0.52c-0.19,0.28-0.42,0.54-0.65,0.8
				c-0.1,0.11-0.24,0.25-0.36,0.25c-0.41,0-0.84-0.01-1.23-0.11c-0.5-0.12-0.62-0.42-0.64-1.05c-0.02-0.46,0.33-0.52,0.62-0.64
				c0.14-0.06,0.28-0.11,0.43-0.17c0.24-0.09,0.37-0.26,0.36-0.52c-0.01-0.61,0.03-1.22-0.03-1.82c-0.1-0.94-0.51-1.72-1.34-2.23
				c-0.54-0.34-1.11-0.63-1.63-0.99c-1.62-1.11-3.16-2.31-4.11-4.11c-0.06-0.11-0.14-0.23-0.24-0.29c-0.18-0.12-0.39-0.27-0.59-0.27
				c-0.8-0.02-1.6-0.01-2.39,0.04c-0.72,0.05-1.45,0.12-2.15,0.29c-1.39,0.35-2.79,0.64-4.24,0.6c-0.9-0.03-1.81,0.01-2.71,0.02
				c-0.48,0.01-0.68,0.18-0.78,0.64c-0.14,0.62-0.27,1.24-0.41,1.86c-0.31,1.34-0.55,2.69-0.4,4.08c0.02,0.19,0.05,0.39,0.14,0.54
				c0.33,0.58,0.1,1.18-0.23,1.52c-0.6,0.62-0.7,1.34-0.82,2.11c-0.11,0.71-0.38,1.02-1.03,1.02c-0.14,0-0.28,0.03-0.42,0.03
				c-0.76,0.03-1.52,0.06-2.25-0.23c-0.46-0.18-0.86-0.49-1.41-0.46c-0.18,0.01-0.5-0.3-0.56-0.52c-0.09-0.32,0.1-0.62,0.47-0.72
				c0.21-0.06,0.41-0.14,0.62-0.17c0.52-0.07,0.82-0.33,1.02-0.83c0.33-0.8,0.48-1.58,0.34-2.44c-0.2-1.23-0.3-2.47-0.52-3.7
				c-0.15-0.85-0.5-1.66-0.63-2.51c-0.16-0.98-0.39-1.88-1.02-2.69c-0.74-0.95-1.2-2.04-1.48-3.22c-0.2-0.88-0.48-1.72-0.32-2.66
				c0.05-0.26-0.03-0.55-0.11-0.84c0.01,0,0.03-0.01,0.04-0.01L285.93,423.36z"/>
			<path class="st2" d="M279.37,414.89c0.49-0.35,1-0.67,1.64-0.6c0.08,0.01,0.17-0.03,0.26-0.05c-0.04-0.21-0.14-0.43-0.09-0.6
				c0.19-0.64,0.51-1.22,1.07-1.62c1.07-0.78,2.31-1.17,3.58-1.31c1.17-0.12,2.34,0.15,3.35,0.83c0.83,0.55,0.83,0.61,0.34,1.52
				c-0.05,0.09-0.03,0.3,0.04,0.37c0.58,0.63,1.09,1.3,1.58,2c0,0-0.15,0.56-0.26,0.89c-0.38,1.16-1.63,2.6-3.19,3.65
				c-0.19,0.13-0.39,0.26-0.6,0.37c-0.12,0.07-0.25,0.14-0.37,0.2c-0.44,0.23-0.9,0.41-1.36,0.56c-0.08,0.02-0.17,0.03-0.26,0.05
				c-0.27-0.75-0.55-1.51-0.84-2.25c-0.2-0.52-0.61-0.63-1.11-0.36c-0.33,0.18-0.67,0.19-0.97-0.02c-0.31-0.21-0.63-0.21-0.98-0.2
				c-0.26,0.01-0.63,0.04-0.76-0.11c-0.39-0.44-0.77-0.93-1-1.46c-0.2-0.45-0.19-0.99-0.25-1.5
				C279.19,415.13,279.28,414.96,279.37,414.89z"/>
			<g>
				<path class="st0" d="M290.83,420.99c-0.08-0.01-0.12-0.01-0.15-0.03c-0.3-0.12-0.59-0.25-0.89-0.37
					c-0.05-0.02-0.1-0.04-0.15-0.07c-0.27-0.14-0.31-0.24-0.25-0.59c0.16,0.14,0.33,0.29,0.51,0.41c0.18,0.13,0.38,0.24,0.57,0.36
					c0.01-0.01,0.02-0.03,0.03-0.04c-0.14-0.11-0.29-0.22-0.43-0.33c-0.19-0.14-0.38-0.27-0.56-0.42c-0.03-0.03-0.03-0.15-0.01-0.18
					c0.19-0.24,0.53-0.24,0.68,0.03C290.4,420.15,290.6,420.56,290.83,420.99z"/>
				<path class="st0" d="M287.94,422.78c-0.3-0.33-0.62-0.65-0.91-1c-0.24-0.29-0.06-0.71,0.3-0.76c0.34-0.05,0.46,0.04,0.5,0.41
					c0.05,0.38,0.09,0.77,0.13,1.15c0.01,0.06,0.01,0.12,0.01,0.19C287.97,422.77,287.96,422.78,287.94,422.78z M287.6,422.26
					c0.01-0.01,0.02-0.01,0.03-0.02c-0.15-0.31-0.3-0.62-0.45-0.94c-0.05,0.13-0.13,0.22,0.02,0.36
					C287.37,421.82,287.47,422.06,287.6,422.26z"/>
				<path class="st0" d="M284.46,423.67c-0.05-0.5-0.12-1-0.15-1.5c-0.02-0.41,0.39-0.64,0.74-0.42c0.33,0.2,0.37,0.36,0.18,0.7
					c-0.2,0.36-0.41,0.71-0.61,1.07c-0.03,0.06-0.07,0.11-0.11,0.17C284.49,423.68,284.47,423.68,284.46,423.67z M284.49,422.99
					c0.01,0,0.02,0.01,0.04,0.01c0.07-0.37,0.13-0.74,0.2-1.11c-0.13,0.07-0.25,0.09-0.21,0.32
					C284.57,422.45,284.51,422.72,284.49,422.99z"/>
				<path class="st0" d="M290.92,417.68c0.08-0.18,0.24-0.29,0.44-0.35c0.04-0.01,0.1,0,0.13,0.03c0.33,0.29,0.66,0.58,0.99,0.87
					c0.02,0.01,0.02,0.04,0.05,0.09c-0.2-0.01-0.38-0.03-0.56-0.04c-0.21-0.01-0.41-0.02-0.62-0.02c-0.34-0.01-0.37-0.05-0.46-0.45
					c0.19,0.09,0.36,0.18,0.54,0.26c0.01-0.02,0.02-0.05,0.03-0.07C291.29,417.89,291.11,417.79,290.92,417.68z"/>
				<path class="st0" d="M291.6,416.36c-0.06-0.19-0.03-0.38,0.08-0.55c0.02-0.03,0.07-0.06,0.11-0.07
					c0.44-0.02,0.88-0.04,1.32-0.05c0.02,0,0.04,0.01,0.1,0.03c-0.16,0.13-0.3,0.24-0.43,0.35c-0.16,0.13-0.31,0.27-0.47,0.41
					c-0.25,0.22-0.3,0.22-0.64-0.02c0.2-0.06,0.39-0.12,0.57-0.18c-0.01-0.03-0.02-0.05-0.03-0.08
					C292,416.25,291.8,416.3,291.6,416.36z"/>
			</g>
		</g>
	</g>
</g>
</svg>
